<svg id="visual" viewBox="0 0 1920 1080" width="1920" height="1080" xmlns="http://www.w3.org/2000/svg" xmlns:xlink="http://www.w3.org/1999/xlink" version="1.1"><rect x="0" y="0" width="1920" height="1080" fill="#FCAF3C"></rect><path d="M0 324L384 324L384 405L768 405L768 262L1152 262L1152 408L1536 408L1536 296L1920 296L1920 185L1920 1081L1920 1081L1536 1081L1536 1081L1152 1081L1152 1081L768 1081L768 1081L384 1081L384 1081L0 1081Z" fill="#d0772e"></path><path d="M0 688L384 688L384 656L768 656L768 482L1152 482L1152 455L1536 455L1536 640L1920 640L1920 713L1920 1081L1920 1081L1536 1081L1536 1081L1152 1081L1152 1081L768 1081L768 1081L384 1081L384 1081L0 1081Z" fill="#a45a1f"></path><path d="M0 923L384 923L384 704L768 704L768 878L1152 878L1152 846L1536 846L1536 914L1920 914L1920 890L1920 1081L1920 1081L1536 1081L1536 1081L1152 1081L1152 1081L768 1081L768 1081L384 1081L384 1081L0 1081Z" fill="#793f10"></path></svg>